<?xml version="1.0" encoding="utf-8"?><svg xmlns="http://www.w3.org/2000/svg" xmlns:xlink="http://www.w3.org/1999/xlink"><symbol viewBox="0 0 27 22" id="check" xmlns="http://www.w3.org/2000/svg"><path fill-rule="evenodd" clip-rule="evenodd" d="M22.28 1.531a2.344 2.344 0 013.348 3.282L13.152 20.406a2.345 2.345 0 01-3.375.063L1.512 12.2a2.344 2.344 0 113.312-3.312l6.544 6.54L22.221 1.6a.75.75 0 01.063-.069h-.003z"/></symbol><symbol viewBox="0 0 21 21" id="close" xmlns="http://www.w3.org/2000/svg"><path d="M12.106 10.5l8.302-8.303A1.139 1.139 0 0018.802.592L10.5 8.894 2.197.58A1.139 1.139 0 00.592 2.186L8.894 10.5.58 18.802a1.139 1.139 0 101.606 1.606l8.314-8.302 8.302 8.302a1.139 1.139 0 001.606-1.606L12.106 10.5z"/></symbol><symbol viewBox="0 0 14 20" id="location" xmlns="http://www.w3.org/2000/svg"><path d="M7 0C3.13 0 0 3.13 0 7c0 5.25 7 13 7 13s7-7.75 7-13c0-3.87-3.13-7-7-7zm0 9.5a2.5 2.5 0 110-5 2.5 2.5 0 010 5z"/></symbol><symbol viewBox="0 0 22 22" id="phone" xmlns="http://www.w3.org/2000/svg"><path d="M17.328 21.5c-.915 0-2.2-.33-4.125-1.406-2.34-1.313-4.15-2.524-6.478-4.846-2.245-2.243-3.337-3.695-4.866-6.477C.133 5.631.427 3.984.756 3.281c.392-.841.97-1.344 1.718-1.843A8.265 8.265 0 013.816.725l.13-.057c.232-.104.583-.262 1.029-.093.297.111.562.34.978.75.851.84 2.015 2.71 2.445 3.63.288.618.479 1.027.48 1.486 0 .536-.27.95-.599 1.397-.061.084-.122.164-.181.242-.357.468-.435.604-.383.846.104.486.884 1.933 2.165 3.211 1.28 1.278 2.686 2.009 3.174 2.113.252.054.39-.028.874-.397.07-.053.14-.108.215-.163.5-.371.895-.634 1.419-.634h.003c.456 0 .846.197 1.493.524.844.425 2.77 1.574 3.616 2.427.411.414.64.678.752.975.17.447.01.797-.093 1.032l-.057.128a8.278 8.278 0 01-.717 1.34c-.498.745-1.003 1.322-1.846 1.715a3.16 3.16 0 01-1.385.303z"/></symbol><symbol viewBox="0 0 27 25" id="star" xmlns="http://www.w3.org/2000/svg"><path d="M13.5 0l3.03 9.328h9.81l-7.936 5.766 3.031 9.328-7.935-5.765-7.935 5.765 3.03-9.329L.662 9.329h9.808L13.5 0z"/></symbol><symbol viewBox="0 0 21 20" id="timetable" xmlns="http://www.w3.org/2000/svg"><path d="M10.25 0c-5.514 0-10 4.486-10 10s4.486 10 10 10 10-4.486 10-10-4.486-10-10-10zM16 11H9.25V4h2v5H16v2z"/></symbol></svg>