<svg width="27" height="22" viewBox="0 0 27 22" fill="none" xmlns="http://www.w3.org/2000/svg">
<path fill-rule="evenodd" clip-rule="evenodd" d="M22.2806 1.53127C22.7179 1.09775 23.3083 0.853759 23.9241 0.85206C24.5399 0.850361 25.1317 1.09109 25.5714 1.52219C26.0111 1.9533 26.2635 2.54015 26.274 3.15586C26.2845 3.77157 26.0522 4.36668 25.6275 4.81252L13.1525 20.4063C12.9381 20.6372 12.6793 20.8225 12.3916 20.9512C12.104 21.0798 11.7933 21.1491 11.4782 21.1549C11.1632 21.1608 10.8502 21.103 10.5579 20.9851C10.2657 20.8672 10.0003 20.6916 9.77746 20.4688L1.51183 12.2C1.28156 11.9854 1.09687 11.7267 0.968768 11.4392C0.840668 11.1517 0.771786 10.8413 0.766234 10.5267C0.760681 10.212 0.818572 9.89937 0.93645 9.60753C1.05433 9.31569 1.22978 9.05058 1.45234 8.82803C1.6749 8.60547 1.94 8.43001 2.23184 8.31214C2.52368 8.19426 2.83627 8.13637 3.15097 8.14192C3.46566 8.14747 3.77602 8.21635 4.06352 8.34445C4.35101 8.47255 4.60976 8.65725 4.82433 8.88752L11.3681 15.4281L22.2212 1.60002C22.2406 1.57581 22.2615 1.55285 22.2837 1.53127H22.2806Z" fill="white"/>
</svg>
