<svg width="21" height="21" viewBox="0 0 21 21" fill="none" xmlns="http://www.w3.org/2000/svg">
<path d="M12.1058 10.5L20.4083 2.19747C20.5949 1.9796 20.6924 1.69935 20.6813 1.41272C20.6702 1.12609 20.5514 0.854189 20.3486 0.651359C20.1457 0.448529 19.8738 0.329705 19.5872 0.318634C19.3006 0.307563 19.0203 0.405059 18.8024 0.591639L10.4999 8.89414L2.19744 0.58025C1.97957 0.39367 1.69932 0.296175 1.41269 0.307246C1.12606 0.318317 0.854159 0.43714 0.651329 0.63997C0.4485 0.842799 0.329676 1.1147 0.318605 1.40133C0.307533 1.68796 0.40503 1.96821 0.59161 2.18608L8.89411 10.5L0.580221 18.8025C0.461 18.9046 0.364171 19.0302 0.295811 19.1715C0.227451 19.3128 0.189036 19.4667 0.182978 19.6235C0.176919 19.7804 0.203348 19.9368 0.260605 20.083C0.317863 20.2291 0.404712 20.3618 0.515702 20.4728C0.626692 20.5838 0.759427 20.6707 0.905575 20.7279C1.05172 20.7852 1.20813 20.8116 1.36498 20.8055C1.52182 20.7995 1.67572 20.7611 1.81702 20.6927C1.95832 20.6244 2.08396 20.5275 2.18605 20.4083L10.4999 12.1058L18.8024 20.4083C19.0203 20.5949 19.3006 20.6924 19.5872 20.6813C19.8738 20.6702 20.1457 20.5514 20.3486 20.3486C20.5514 20.1458 20.6702 19.8739 20.6813 19.5872C20.6924 19.3006 20.5949 19.0203 20.4083 18.8025L12.1058 10.5Z" fill="black"/>
</svg>
