<svg width="100" height="100" viewBox="0 0 100 100" fill="none" xmlns="http://www.w3.org/2000/svg">
<path d="M15.3347 20.2684H15.0847V20.5184V89.8488V90.0988H15.3347H84.6652H84.9152V89.8488V20.5184V20.2684H84.6652H15.3347ZM84.6652 17.5286H84.9152V17.2786V5.07559C84.9152 3.92521 83.9797 2.98974 82.8293 2.98974H39.5248H39.2748V3.23974V17.2786V17.5286H39.5248H84.6652ZM36.535 3.23974V2.98974H36.285H17.1706C16.0202 2.98974 15.0847 3.92521 15.0847 5.07559V17.2786V17.5286H15.3347H36.285H36.535V17.2786V3.23974ZM15.3347 92.8386H15.0847V93.0886V94.9244C15.0847 96.0748 16.0202 97.0103 17.1706 97.0103H82.8293C83.9797 97.0103 84.9152 96.0748 84.9152 94.9244V93.0886V92.8386H84.6652H15.3347ZM17.1706 0.25H82.8293C85.4899 0.25 87.6549 2.41496 87.6549 5.07559V94.9244C87.6549 97.585 85.4899 99.75 82.8293 99.75H17.1706C14.5099 99.75 12.345 97.585 12.345 94.9244V5.07559C12.345 2.41496 14.5099 0.25 17.1706 0.25Z" fill="black" stroke="white" stroke-width="0.5"/>
<path d="M26.168 51.7278C26.168 38.5871 36.8593 27.8958 50 27.8958C63.1408 27.8958 73.8321 38.5871 73.8321 51.7278C73.8321 64.8686 63.1408 75.5599 50 75.5599C36.8593 75.5599 26.168 64.8686 26.168 51.7278ZM28.9077 51.7278C28.9077 63.3583 38.3695 72.8202 50 72.8202C61.6306 72.8202 71.0924 63.3583 71.0924 51.7278C71.0924 40.0973 61.6306 30.6355 50 30.6355C38.3695 30.6355 28.9077 40.0973 28.9077 51.7278Z" fill="black" stroke="white" stroke-width="0.5"/>
<path d="M54.8255 10.2592C54.8255 12.9198 52.6606 15.0848 49.9999 15.0848C47.3393 15.0848 45.1743 12.9198 45.1743 10.2592C45.1743 7.59856 47.3393 5.43359 49.9999 5.43359C52.6606 5.43359 54.8255 7.59856 54.8255 10.2592ZM52.0858 10.2592C52.0858 9.10881 51.1503 8.17333 49.9999 8.17333C48.8495 8.17333 47.9141 9.10881 47.9141 10.2592C47.9141 11.4096 48.8495 12.345 49.9999 12.345C51.1503 12.345 52.0858 11.4096 52.0858 10.2592Z" fill="#00A72F" stroke="white" stroke-width="0.5"/>
<path d="M30.9934 15.0848H20.6262C19.8697 15.0848 19.2563 14.4715 19.2563 13.715C19.2563 12.9584 19.8697 12.3451 20.6262 12.3451H30.9934C31.7499 12.3451 32.3633 12.9584 32.3633 13.715C32.3633 14.4715 31.7499 15.0848 30.9934 15.0848Z" fill="black" stroke="white" stroke-width="0.5"/>
<path d="M65.5508 11.629H60.3672C59.6107 11.629 58.9973 11.0157 58.9973 10.2592C58.9973 9.50262 59.6107 8.88928 60.3672 8.88928H65.5508C66.3073 8.88928 66.9206 9.50262 66.9206 10.2592C66.9206 11.0157 66.3073 11.629 65.5508 11.629Z" fill="#00A72F" stroke="white" stroke-width="0.5"/>
<path d="M77.6457 11.629H72.4622C71.7056 11.629 71.0923 11.0157 71.0923 10.2592C71.0923 9.50262 71.7056 8.88928 72.4622 8.88928H77.6457C78.4023 8.88928 79.0156 9.50262 79.0156 10.2592C79.0156 11.0157 78.4023 11.629 77.6457 11.629Z" fill="#00A72F" stroke="white" stroke-width="0.5"/>
<path d="M33.0793 51.7278C33.0793 42.398 40.6702 34.8071 50 34.8071C59.3297 34.8071 66.9206 42.398 66.9206 51.7278C66.9206 61.0575 59.3297 68.6484 50 68.6484C40.6702 68.6484 33.0793 61.0575 33.0793 51.7278ZM35.8191 51.7278C35.8191 59.5472 42.1805 65.9086 50 65.9086C57.8195 65.9086 64.1809 59.5472 64.1809 51.7278C64.1809 43.9083 57.8195 37.5469 50 37.5469C42.1805 37.5469 35.8191 43.9083 35.8191 51.7278Z" fill="black" stroke="white" stroke-width="0.5"/>
</svg>
