<svg width="100" height="100" viewBox="0 0 100 100" fill="none" xmlns="http://www.w3.org/2000/svg">
<path d="M88.5719 16.3529V89.7438H33.9844H33.8844V89.8438V99.9H30.8061L25.0707 94.1646L25 94.0939L24.9293 94.1646L19.1939 99.9H16.1156V77.0891V77.0437L16.0814 77.0138C13.2326 74.5236 11.4281 70.8682 11.4281 66.7969C11.4281 59.7056 16.8962 53.8707 23.8366 53.2781L23.9281 53.2703V53.1785V0.1H72.3189L88.5719 16.3529ZM73.1176 3.93027L72.9469 3.75956V4.00098V15.625V15.725H73.0469H84.6709H84.9123L84.7416 15.5543L73.1176 3.93027ZM18.4301 97.6322L25 91.0623L31.5699 97.6322L31.7406 97.8029V97.5615V78.742V78.5717L31.5919 78.6547C29.6385 79.7449 27.3914 80.3689 25 80.3689C22.6086 80.3689 20.3615 79.7449 18.4081 78.6547L18.2594 78.5717V78.742V97.5615V97.8029L18.4301 97.6322ZM33.8844 87.5V87.6H33.9844H86.3281H86.4281V87.5V17.9688V17.8687H86.3281H70.8031V2.34375V2.24375H70.7031H26.1719H26.0719V2.34375V53.1785V53.2703L26.1634 53.2781C33.1038 53.8708 38.5719 59.7058 38.5719 66.7969C38.5719 70.8682 36.7674 74.5236 33.9186 77.0138L33.8844 77.0437V77.0891V87.5ZM25 55.3688C18.6985 55.3688 13.5719 60.4954 13.5719 66.7969C13.5719 73.0984 18.6985 78.225 25 78.225C31.3015 78.225 36.4281 73.0984 36.4281 66.7969C36.4281 60.4954 31.3015 55.3688 25 55.3688Z" fill="black" stroke="white" stroke-width="0.2"/>
<path d="M34.375 12.5H53.125V14.8438H34.375V12.5Z" fill="black"/>
<path d="M34.375 18.75H46.875V21.0938H34.375V18.75Z" fill="black"/>
<path d="M34.375 28.125H78.125V30.4688H34.375V28.125Z" fill="black"/>
<path d="M34.375 34.375H78.125V36.7188H34.375V34.375Z" fill="black"/>
<path d="M34.375 46.875H78.125V49.2188H34.375V46.875Z" fill="black"/>
<path d="M40.625 53.125H71.875V55.4688H40.625V53.125Z" fill="black"/>
<path d="M34.375 40.625H78.125V42.9688H34.375V40.625Z" fill="black"/>
<path d="M59.375 62.5H78.125V64.8438H59.375V62.5Z" fill="black"/>
<path d="M65.625 68.75H78.125V71.0938H65.625V68.75Z" fill="black"/>
<path d="M25 74.2188C29.0924 74.2188 32.4219 70.8893 32.4219 66.7969C32.4219 62.7045 29.0924 59.375 25 59.375C20.9076 59.375 17.5781 62.7045 17.5781 66.7969C17.5781 70.8893 20.9076 74.2188 25 74.2188ZM25 61.7188C27.8002 61.7188 30.0781 63.9967 30.0781 66.7969C30.0781 69.5971 27.8002 71.875 25 71.875C22.1998 71.875 19.9219 69.5971 19.9219 66.7969C19.9219 63.9967 22.1998 61.7188 25 61.7188Z" fill="#00A72F"/>
</svg>
