<svg width="134" height="100" viewBox="0 0 134 100" fill="none" xmlns="http://www.w3.org/2000/svg">
<path d="M10.098 22.258H30.646C31.722 22.258 32.5944 21.3859 32.5944 20.3097C32.5944 19.2334 31.722 18.3613 30.646 18.3613H10.098C9.022 18.3613 8.14966 19.2334 8.14966 20.3097C8.14966 21.3859 9.02174 22.258 10.098 22.258Z" fill="black"/>
<path d="M29.942 31.6379H21.8249C20.7489 31.6379 19.8766 32.51 19.8766 33.5863C19.8766 34.6626 20.7489 35.5346 21.8249 35.5346H29.942C31.018 35.5346 31.8903 34.6626 31.8903 33.5863C31.8903 32.51 31.018 31.6379 29.942 31.6379Z" fill="black"/>
<path d="M1.94835 45.1491H21.8246C22.9006 45.1491 23.7729 44.2771 23.7729 43.2008C23.7729 42.1245 22.9006 41.2524 21.8246 41.2524H1.94835C0.872339 41.2524 0 42.1245 0 43.2008C0 44.2771 0.872339 45.1491 1.94835 45.1491Z" fill="black"/>
<path d="M32.5944 79.6898C32.5944 78.6135 31.722 77.7415 30.646 77.7415H10.098C9.022 77.7415 8.14966 78.6135 8.14966 79.6898C8.14966 80.7661 9.022 81.6381 10.098 81.6381H30.646C31.722 81.6381 32.5944 80.7661 32.5944 79.6898Z" fill="black"/>
<path d="M29.942 64.4653H21.8249C20.7489 64.4653 19.8766 65.3374 19.8766 66.4137C19.8766 67.49 20.7489 68.362 21.8249 68.362H29.942C31.018 68.362 31.8903 67.49 31.8903 66.4137C31.8903 65.3374 31.018 64.4653 29.942 64.4653Z" fill="black"/>
<path d="M23.7729 56.7992C23.7729 55.7229 22.9006 54.8508 21.8246 54.8508H1.94835C0.872339 54.8508 0 55.7229 0 56.7992C0 57.8754 0.872339 58.7475 1.94835 58.7475H21.8246C22.9006 58.7475 23.7729 57.8754 23.7729 56.7992Z" fill="black"/>
<path d="M84.705 24.6273C84.705 25.5655 83.9449 26.3256 83.0067 26.3256C82.0685 26.3256 81.3083 25.5655 81.3083 24.6273V21.6533C81.3083 20.7151 82.0685 19.955 83.0067 19.955C83.9449 19.955 84.705 20.7151 84.705 21.6533V24.6273Z" fill="black" stroke="white" stroke-width="0.5"/>
<path d="M101.85 28.7549C101.85 28.7548 101.85 28.7548 101.85 28.7548C102.514 28.0919 103.589 28.0918 104.252 28.7548C104.915 29.4183 104.915 30.4935 104.252 31.1567C104.252 31.1568 104.252 31.1568 104.252 31.1568L102.149 33.2596C101.486 33.9227 100.411 33.9229 99.7474 33.2596C99.0842 32.5964 99.0842 31.5212 99.7475 30.8577L101.85 28.7549Z" fill="black" stroke="white" stroke-width="0.5"/>
<path d="M106.681 49.9999C106.681 49.0617 107.441 48.3015 108.379 48.3015H111.353C112.291 48.3015 113.052 49.0617 113.052 49.9999C113.052 50.9381 112.291 51.6982 111.353 51.6982H108.379C107.441 51.6982 106.681 50.9381 106.681 49.9999Z" fill="black" stroke="white" stroke-width="0.5"/>
<path d="M99.7474 66.74C99.7474 66.7399 99.7475 66.7399 99.7475 66.7399C100.411 66.0769 101.486 66.0769 102.149 66.74L104.252 68.8428C104.916 69.5061 104.916 70.5812 104.252 71.2447C103.589 71.9078 102.514 71.908 101.85 71.2447L99.7474 69.1418C99.0842 68.4786 99.0842 67.4035 99.7474 66.74Z" fill="black" stroke="white" stroke-width="0.5"/>
<path d="M81.3083 78.3463V75.3727C81.3083 74.4347 82.0685 73.6743 83.0067 73.6743C83.9449 73.6743 84.705 74.4345 84.705 75.3727V78.3463C84.705 79.2845 83.9449 80.0447 83.0067 80.0447C82.0685 80.0447 81.3083 79.2845 81.3083 78.3463Z" fill="black" stroke="white" stroke-width="0.5"/>
<path d="M61.7621 68.8428C61.7621 68.8428 61.7621 68.8428 61.7621 68.8428C61.0988 69.5064 61.0989 70.5815 61.7621 71.2447C62.4256 71.908 63.5008 71.9077 64.1637 71.2447L66.2666 69.1419C66.9299 68.4783 66.9299 67.4032 66.2667 66.7399C65.6037 66.077 64.5283 66.0769 63.865 66.7399L61.7621 68.8428ZM61.7621 68.8428L63.865 66.74L61.7621 68.8428Z" fill="black" stroke="white" stroke-width="0.5"/>
<path d="M52.9619 49.9999C52.9619 49.0617 53.7223 48.3015 54.6603 48.3015H57.6342C58.5722 48.3015 59.3326 49.0617 59.3326 49.9999C59.3326 50.938 58.5722 51.6982 57.6342 51.6982H54.6603C53.7223 51.6982 52.9619 50.938 52.9619 49.9999Z" fill="black" stroke="white" stroke-width="0.5"/>
<path d="M64.164 28.7549L66.2669 30.8577L64.164 28.7549ZM64.164 28.7549C64.164 28.7548 64.164 28.7548 64.164 28.7548C63.5007 28.0918 62.4253 28.0918 61.7624 28.7548C61.7624 28.7548 61.7623 28.7548 61.7623 28.7548M64.164 28.7549L61.7623 28.7548M61.7623 28.7548C61.0991 29.4184 61.0991 30.4935 61.7623 31.1567L63.8652 33.2596C64.5287 33.9229 65.6039 33.9227 66.2669 33.2597C66.9301 32.5964 66.9302 31.5213 66.2669 30.8577L61.7623 28.7548Z" fill="black" stroke="white" stroke-width="0.5"/>
<path d="M93.4836 49.9999C93.4836 48.9237 92.6115 48.0516 91.5352 48.0516H84.955V33.586C84.955 32.5098 84.083 31.6377 83.0067 31.6377C81.9304 31.6377 81.0583 32.5098 81.0583 33.586V49.9999C81.0583 51.0762 81.9304 51.9483 83.0067 51.9483H91.5352C92.6113 51.9483 93.4836 51.0762 93.4836 49.9999Z" fill="#00A72F"/>
<path d="M121.528 47.6307C121.585 48.5666 120.872 49.3715 119.936 49.4287L119.936 49.4287C118.998 49.4827 118.194 48.7716 118.138 47.8369C117.015 29.3118 101.584 14.8015 83.0069 14.8015C63.5982 14.8015 47.8083 30.5916 47.8083 50.0004C47.8083 69.4091 63.5982 85.199 83.0069 85.199C100.412 85.199 115.236 72.4393 117.813 55.2715C117.952 54.3437 118.819 53.7052 119.744 53.844C120.672 53.9833 121.311 54.8481 121.172 55.7756C118.342 74.6258 102.073 88.5954 83.0069 88.5954C61.7257 88.5954 44.4116 71.2814 44.4116 50.0001C44.4116 28.7186 61.7257 11.4045 83.0069 11.4045C103.376 11.4045 120.297 27.3175 121.528 47.6307Z" fill="black" stroke="white" stroke-width="0.5"/>
<path d="M63.2593 4.33061H63.3108L63.3581 4.31026C69.5076 1.6646 76.1885 0.25 83.0072 0.25C110.439 0.25 132.757 22.5679 132.757 50C132.757 77.4321 110.439 99.75 83.0074 99.75C76.0218 99.75 69.3695 98.3002 63.3317 95.6899L63.2842 95.6694H63.2325H28.8832C27.9452 95.6694 27.1848 94.9092 27.1848 93.971C27.1848 93.0329 27.9452 92.2727 28.8832 92.2727H55.9418H56.7892L56.0775 91.8127C42.3567 82.9449 33.2572 67.5155 33.2572 50C33.2572 40.3938 36.0017 31.0694 41.1944 23.0339C41.7037 22.2459 42.7549 22.0203 43.5428 22.5292C44.3305 23.0383 44.5565 24.0894 44.0475 24.8772C39.2106 32.3625 36.6539 41.05 36.6539 50C36.6539 75.5596 57.4476 96.3533 83.0072 96.3533C108.567 96.3533 129.361 75.5593 129.361 50C129.361 24.4404 108.567 3.64669 83.0072 3.64669C69.9431 3.64669 57.4171 9.20441 48.6407 18.895C48.0106 19.5903 46.937 19.6434 46.2416 19.0137C45.5464 18.3839 45.4935 17.3099 46.123 16.615L46.123 16.615C49.0763 13.3541 52.4259 10.5294 56.0646 8.18753L56.7797 7.72731H55.9293H28.8829C27.945 7.72731 27.1846 6.96713 27.1846 6.02896C27.1846 5.09079 27.945 4.33061 28.8829 4.33061H63.2593Z" fill="black" stroke="white" stroke-width="0.5"/>
<rect x="118.923" y="47.5378" width="2.36641" height="7.97006" transform="rotate(2.14148 118.923 47.5378)" fill="black"/>
<rect x="45.9062" y="18" width="2.36641" height="6.48419" transform="rotate(37.0421 45.9062 18)" fill="black"/>
</svg>
