<svg width="70" height="70" viewBox="0 0 70 70" fill="none" xmlns="http://www.w3.org/2000/svg">
<g clip-path="url(#clip0)">
<path d="M35 45.6977C33.7463 45.6977 32.7406 44.6782 32.7406 43.4383C32.7406 42.1984 33.7463 41.1789 35 41.1789C36.2537 41.1789 37.2594 42.1984 37.2594 43.4383H39.5188C39.5188 41.3304 38.0722 39.5808 36.1297 39.071V37.2249H33.8703V39.071C31.9278 39.5808 30.4812 41.3304 30.4812 43.4383C30.4812 45.9319 32.5064 47.9709 35.0138 47.9709C36.2675 47.9709 37.2732 48.9903 37.2732 50.2303C37.2732 51.4839 36.2537 52.4897 35.0138 52.4897C33.7601 52.4897 32.7544 51.4702 32.7544 50.2303H30.495C30.495 52.3381 31.9415 54.0878 33.8841 54.5975V56.4712H36.1435V54.5975C38.086 54.0878 39.5326 52.3381 39.5326 50.2303C39.5326 47.7367 37.5074 45.6977 35 45.6977Z" fill="#00A72F"/>
<path d="M35 32.6924C27.2023 32.6924 20.8512 39.0435 20.8512 46.8412C20.8512 54.6388 27.2023 61.0037 35 61.0037C42.7977 61.0037 49.1488 54.6526 49.1488 46.8549C49.1488 39.0573 42.7977 32.6924 35 32.6924ZM35 58.7306C28.4422 58.7306 23.1106 53.3989 23.1106 46.8412C23.1106 40.2834 28.4422 34.9518 35 34.9518C41.5577 34.9518 46.8894 40.2834 46.8894 46.8412C46.8894 53.3989 41.5577 58.7306 35 58.7306Z" fill="black"/>
<path d="M46.173 20.6652C46.9445 20.0453 47.4543 19.1084 47.4543 18.0338C47.4543 16.1602 45.925 14.6448 44.0652 14.6448H41.7507L46.4899 3.84373C46.7517 3.14111 46.6552 2.38339 46.2281 1.76343C45.6357 0.90927 44.506 0.564849 43.5279 0.9506L40.6623 2.09408L35.8404 0.165322C35.3031 -0.0551073 34.6969 -0.0551073 34.1596 0.165322L29.3378 2.09408L26.4722 0.9506C25.5078 0.564849 24.3643 0.90927 23.7719 1.76343C23.3448 2.38339 23.2484 3.12734 23.5377 3.89884L28.2494 14.631H25.9487C24.075 14.631 22.5596 16.1602 22.5596 18.0201C22.5596 19.0809 23.0555 20.0315 23.827 20.6514C16.2498 27.5812 11.0697 42.1984 11.0697 51.9661C11.0697 68.1264 24.7225 70 35 70C45.2775 70 58.9304 68.1264 58.9304 51.9799C58.9304 42.2122 53.7503 27.595 46.173 20.6652ZM25.6318 3.05845L28.4974 4.20193C29.0347 4.42236 29.6409 4.42236 30.1781 4.20193L35 2.27317L39.8219 4.20193C40.3592 4.42236 40.9654 4.42236 41.5027 4.20193L44.3958 2.98957L39.2846 14.631H30.7154L25.6318 3.05845ZM25.9487 16.9042H44.0652C44.6851 16.9042 45.1949 17.4139 45.1949 18.0338C45.1949 18.6538 44.6851 19.1636 44.0652 19.1636H25.9487C25.3287 19.1636 24.819 18.6538 24.819 18.0338C24.819 17.4139 25.3149 16.9042 25.9487 16.9042ZM35 67.7406C20.0109 67.7406 13.3291 62.8774 13.3291 51.9937C13.3291 42.2673 18.6607 27.4572 26.3482 21.4367H43.6519C51.3393 27.4434 56.671 42.2535 56.671 51.9937C56.671 62.8774 49.9892 67.7406 35 67.7406Z" fill="black"/>
</g>
<defs>
<clipPath id="clip0">
<rect width="70" height="70" fill="white"/>
</clipPath>
</defs>
</svg>
