<svg width="70" height="70" viewBox="0 0 70 70" fill="none" xmlns="http://www.w3.org/2000/svg">
<path d="M29.1667 15.1667H26.2897C26.0843 14.5157 25.823 13.8845 25.5045 13.2778L27.5403 11.2408C27.9965 10.7847 27.9965 10.0473 27.5403 9.59117L24.241 6.29183C23.7848 5.83567 23.0475 5.83567 22.5913 6.29183L20.5555 8.32767C19.95 8.01033 19.3177 7.749 18.6667 7.54367V4.66667C18.6667 4.02267 18.1452 3.5 17.5 3.5H12.8333C12.1882 3.5 11.6667 4.02267 11.6667 4.66667V7.54367C11.0157 7.749 10.3833 8.01033 9.77783 8.32767L7.742 6.293C7.28583 5.83683 6.5485 5.83683 6.09233 6.293L2.793 9.59233C2.33683 10.0485 2.33683 10.7858 2.793 11.242L4.82883 13.279C4.51033 13.8845 4.249 14.5157 4.04367 15.1667H1.16667C0.5215 15.1667 0 15.6893 0 16.3333V21C0 21.644 0.5215 22.1667 1.16667 22.1667H4.04367C4.249 22.8177 4.51033 23.4488 4.82883 24.0555L2.793 26.0925C2.33683 26.5487 2.33683 27.286 2.793 27.7422L6.09233 31.0415C6.5485 31.4977 7.28583 31.4977 7.742 31.0415L9.77783 29.0057C10.3845 29.323 11.0168 29.5855 11.6667 29.7897V32.6667C11.6667 33.3107 12.1882 33.8333 12.8333 33.8333H17.5C18.1452 33.8333 18.6667 33.3107 18.6667 32.6667V29.7897C19.3177 29.5843 19.95 29.323 20.5555 29.0057L22.5913 31.0415C23.0475 31.4977 23.7848 31.4977 24.241 31.0415L27.5403 27.7422C27.9965 27.286 27.9965 26.5487 27.5403 26.0925L25.5045 24.0555C25.8218 23.4488 26.0843 22.8177 26.2897 22.1667H29.1667C29.8118 22.1667 30.3333 21.644 30.3333 21V16.3333C30.3333 15.6893 29.8118 15.1667 29.1667 15.1667ZM28 19.8333H25.3983C24.8535 19.8333 24.3822 20.2102 24.2608 20.741C24.0275 21.763 23.6238 22.7348 23.0627 23.6273C22.7722 24.0882 22.8398 24.689 23.2248 25.074L25.067 26.9173L23.4173 28.567L21.5752 26.7248C21.189 26.3398 20.5882 26.2722 20.1285 26.5627C19.2348 27.125 18.2642 27.5287 17.2422 27.7608C16.7102 27.881 16.3333 28.3535 16.3333 28.8983V31.5H14V28.8983C14 28.3535 13.6232 27.881 13.0923 27.7608C12.0703 27.5287 11.0997 27.125 10.206 26.5627C9.74517 26.2722 9.1455 26.3398 8.75933 26.7248L6.91717 28.567L5.2675 26.9173L7.10967 25.074C7.49467 24.689 7.56233 24.0882 7.27183 23.6273C6.71067 22.7348 6.307 21.7642 6.07367 20.741C5.95233 20.2102 5.47983 19.8333 4.935 19.8333H2.33333V17.5H4.935C5.47983 17.5 5.95117 17.1232 6.0725 16.5923C6.30583 15.5703 6.7095 14.5985 7.27067 13.706C7.56117 13.2452 7.4935 12.6443 7.1085 12.2593L5.26633 10.416L6.916 8.76633L8.75817 10.6085C9.14433 10.9947 9.74517 11.0612 10.2048 10.7707C11.0985 10.2083 12.0692 9.80467 13.0912 9.5725C13.6232 9.45233 14 8.97983 14 8.435V5.83333H16.3333V8.435C16.3333 8.97983 16.7102 9.45233 17.241 9.5725C18.263 9.80467 19.2337 10.2083 20.1273 10.7707C20.5882 11.0612 21.1878 10.9935 21.574 10.6085L23.4162 8.76633L25.0658 10.416L23.2237 12.2593C22.8387 12.6443 22.771 13.2452 23.0615 13.706C23.6227 14.5985 24.0263 15.5692 24.2597 16.5923C24.381 17.1232 24.8535 17.5 25.3983 17.5H28V19.8333Z" fill="black"/>
<path d="M15.1666 12.8333C11.9501 12.8333 9.33325 15.4502 9.33325 18.6667C9.33325 21.8832 11.9501 24.5 15.1666 24.5C18.3831 24.5 20.9999 21.8832 20.9999 18.6667C20.9999 15.4502 18.3831 12.8333 15.1666 12.8333ZM15.1666 22.1667C13.2369 22.1667 11.6666 20.5963 11.6666 18.6667C11.6666 16.737 13.2369 15.1667 15.1666 15.1667C17.0963 15.1667 18.6666 16.737 18.6666 18.6667C18.6666 20.5963 17.0963 22.1667 15.1666 22.1667Z" fill="black"/>
<path d="M46.6667 35C40.2337 35 35 40.2337 35 46.6667C35 53.0997 40.2337 58.3333 46.6667 58.3333C53.0997 58.3333 58.3333 53.0997 58.3333 46.6667C58.3333 40.2337 53.0997 35 46.6667 35ZM46.6667 56C41.5205 56 37.3333 51.8128 37.3333 46.6667C37.3333 41.5205 41.5205 37.3333 46.6667 37.3333C51.8128 37.3333 56 41.5205 56 46.6667C56 51.8128 51.8128 56 46.6667 56Z" fill="black"/>
<path d="M68.8333 42H64.7429C64.4104 40.7143 63.9356 39.4625 63.3231 38.2585L66.4649 35.1167C66.6843 34.8973 66.8068 34.601 66.8068 34.2918C66.8068 33.9827 66.6843 33.6852 66.4649 33.467L60.6899 27.692C60.2337 27.2358 59.4964 27.2358 59.0402 27.692L56.1434 30.5888C55.0001 29.9157 53.7809 29.3662 52.4999 28.9473V24.5C52.4999 23.856 51.9784 23.3333 51.3333 23.3333H43.1666C42.5214 23.3333 41.9999 23.856 41.9999 24.5V28.5903C40.7271 28.9193 39.4881 29.3872 38.2969 29.9868L34.6161 26.824C34.3816 26.6222 34.0643 26.5253 33.7679 26.5452C33.4588 26.5685 33.1718 26.7132 32.9699 26.9477L27.6476 33.1427C27.2288 33.6315 27.2836 34.3677 27.7724 34.7877L30.5794 37.2003C29.9109 38.339 29.3638 39.5547 28.9461 40.8333H24.4999C23.8548 40.8333 23.3333 41.356 23.3333 42V50.1667C23.3333 50.8107 23.8548 51.3333 24.4999 51.3333H28.5903C28.9228 52.619 29.3976 53.8708 30.0101 55.0748L26.8683 58.2167C26.6489 58.436 26.5264 58.7323 26.5264 59.0415C26.5264 59.3507 26.6489 59.6482 26.8683 59.8663L32.6433 65.6413C33.0994 66.0975 33.8368 66.0975 34.2929 65.6413L37.1898 62.7445C38.3319 63.4165 39.5523 63.966 40.8333 64.386V68.8333C40.8333 69.4773 41.3548 70 41.9999 70H50.1666C50.8118 70 51.3333 69.4773 51.3333 68.8333V64.743C52.6178 64.4105 53.8696 63.9357 55.0736 63.3232L58.2154 66.465C58.6716 66.9212 59.4089 66.9212 59.8651 66.465L65.6401 60.69C66.0963 60.2338 66.0963 59.4965 65.6401 59.0403L62.7432 56.1423C63.4152 55.0002 63.9648 53.781 64.3836 52.4988H68.8333C69.4784 52.4988 69.9999 51.9762 69.9999 51.3322V43.1655C69.9999 42.5227 69.4784 42 68.8333 42ZM67.6666 50.1667H63.5179C62.9941 50.1667 62.5332 50.5167 62.3932 51.0218C61.9301 52.6972 61.2219 54.2593 60.2886 55.6675C59.9818 56.1295 60.0448 56.7443 60.4368 57.1363L63.1656 59.8652L59.0402 63.9905L56.1096 61.0598C55.7398 60.6888 55.1669 60.6095 54.7084 60.8697C53.1953 61.7283 51.5888 62.335 49.9333 62.6698C49.3908 62.7818 48.9999 63.2602 48.9999 63.8155V67.6667H43.1666V63.518C43.1666 62.993 42.8166 62.5333 42.3114 62.3933C40.6372 61.9302 39.0751 61.2232 37.6669 60.2898C37.2049 59.9842 36.5889 60.0437 36.1969 60.4368L33.4681 63.1657L29.3428 59.0403L32.2734 56.1108C32.6444 55.7398 32.7226 55.1658 32.4624 54.7097C31.6049 53.1977 30.9983 51.5912 30.6623 49.9333C30.5514 49.3908 30.0719 49 29.5178 49H25.6666V43.1667H29.8153C30.3391 43.1667 30.7999 42.8167 30.9399 42.3115C31.4078 40.6152 32.1264 39.0355 33.0738 37.618C33.4004 37.128 33.3106 36.47 32.8626 36.0862L30.1793 33.7797L33.9803 29.3557L37.3811 32.277C37.7521 32.5967 38.2841 32.6503 38.7111 32.41C40.1939 31.5817 41.7701 30.9937 43.3999 30.6623C43.9424 30.5515 44.3333 30.0732 44.3333 29.5178V25.6667H50.1666V29.8153C50.1666 30.3403 50.5166 30.8 51.0218 30.94C52.6948 31.402 54.2569 32.1102 55.6663 33.0435C56.1283 33.3492 56.7431 33.2885 57.1362 32.8965L59.8651 30.1677L63.9904 34.293L61.0598 37.2225C60.6888 37.5935 60.6106 38.1675 60.8708 38.6237C61.7282 40.1357 62.3349 41.7422 62.6721 43.4C62.7818 43.9425 63.2613 44.3333 63.8154 44.3333H67.6666V50.1667Z" fill="black"/>
<path d="M50.1667 10.5V8.16667H47.7283C47.5487 7.10617 47.1333 6.12617 46.5325 5.28383L48.258 3.55833L46.6083 1.90867L44.8828 3.63417C44.0405 3.03333 43.0605 2.618 42 2.43833V0H39.6667V2.43833C38.6062 2.618 37.6262 3.03333 36.7838 3.633L35.0583 1.90867L33.4087 3.55833L35.1342 5.28383C34.5333 6.12617 34.118 7.10617 33.9383 8.16667H31.5V10.5H33.9383C34.118 11.5605 34.5333 12.5405 35.1342 13.3828L33.4087 15.1083L35.0583 16.758L36.7838 15.0325C37.6262 15.6333 38.6062 16.0487 39.6667 16.2283V18.6667H42V16.2283C43.0605 16.0487 44.0405 15.6333 44.8828 15.0337L46.6083 16.7592L48.258 15.1095L46.5325 13.384C47.1333 12.5405 47.5487 11.5605 47.7283 10.5H50.1667ZM40.8333 14C38.2597 14 36.1667 11.907 36.1667 9.33333C36.1667 6.75967 38.2597 4.66667 40.8333 4.66667C43.407 4.66667 45.5 6.75967 45.5 9.33333C45.5 11.907 43.407 14 40.8333 14Z" fill="#00A72F"/>
<path d="M42.0001 8.16666H39.6667V10.5H42.0001V8.16666Z" fill="#00A72F"/>
</svg>
