<svg width="81" height="97" viewBox="0 0 81 97" fill="none" xmlns="http://www.w3.org/2000/svg">
<path d="M40.4999 96.7813C40.2509 96.784 40.0046 96.7289 39.7805 96.6203L33.182 93.3211C23.2661 88.4047 14.9261 80.8081 9.10809 71.3928C3.29005 61.9774 0.226712 51.1202 0.265501 40.0524V14.7031C0.265419 14.3652 0.371702 14.0359 0.569282 13.7617C0.766862 13.4876 1.04572 13.2826 1.36631 13.1758L39.9913 0.300849C40.3214 0.190895 40.6783 0.190895 41.0084 0.300849L79.6334 13.1758C79.954 13.2826 80.2329 13.4876 80.4305 13.7617C80.628 14.0359 80.7343 14.3652 80.7342 14.7031V40.0524C80.7715 51.1188 77.7075 61.9744 71.8895 71.3881C66.0716 80.8019 57.7325 88.3973 47.8177 93.3131L41.2193 96.6123C40.9958 96.7236 40.7495 96.7815 40.4999 96.7813ZM3.48425 15.8635V40.0524C3.45046 50.5194 6.34968 60.7865 11.8533 69.6898C17.3568 78.5932 25.2446 85.7766 34.6224 90.4258L40.4999 93.3726L46.3773 90.4339C55.7565 85.7842 63.6452 78.5996 69.1489 69.6946C74.6525 60.7897 77.551 50.5208 77.5155 40.0524V15.8635L40.4999 3.52443L3.48425 15.8635Z" fill="black"/>
<path d="M40.4998 85.9856C40.2501 85.9858 40.0039 85.928 39.7804 85.8166L37.4999 84.6756C29.1929 80.5573 22.206 74.1937 17.3315 66.3066C12.457 58.4194 9.89006 49.3242 9.92168 40.0524V21.6637C9.92159 21.3258 10.0279 20.9964 10.2255 20.7223C10.423 20.4482 10.7019 20.2432 11.0225 20.1364L39.9912 10.4802C40.3214 10.3702 40.6782 10.3702 41.0084 10.4802L69.9771 20.1364C70.2977 20.2432 70.5766 20.4482 70.7741 20.7223C70.9717 20.9964 71.078 21.3258 71.0779 21.6637V40.0524C71.1096 49.3245 68.5424 58.4198 63.6677 66.307C58.7929 74.1942 51.8055 80.5576 43.4981 84.6756L41.2192 85.8166C40.9957 85.928 40.7495 85.9858 40.4998 85.9856ZM13.1404 22.8225V40.0524C13.1112 48.7261 15.5128 57.2344 20.0729 64.6126C24.633 71.9909 31.1692 77.9438 38.9403 81.7964L40.4998 82.577L42.0593 81.7964C49.8305 77.9439 56.3668 71.991 60.927 64.6128C65.4871 57.2345 67.8886 48.7261 67.8592 40.0524V22.8225L40.4998 13.7037L13.1404 22.8225Z" fill="black"/>
<path d="M37.2812 62.9843C36.8544 62.9842 36.4451 62.8146 36.1434 62.5128L22.4878 48.8572C22.1861 48.5554 22.0166 48.1461 22.0166 47.7194C22.0166 47.2926 22.1861 46.8834 22.4878 46.5816L27.0391 42.0286C27.3409 41.7269 27.7502 41.5574 28.1769 41.5574C28.6037 41.5574 29.013 41.7269 29.3148 42.0286L37.2812 49.9951L55.2933 31.9829C55.5951 31.6812 56.0044 31.5117 56.4311 31.5117C56.8579 31.5117 57.2672 31.6812 57.569 31.9829L62.1219 36.5342C62.4236 36.836 62.5931 37.2453 62.5931 37.6721C62.5931 38.0988 62.4236 38.5081 62.1219 38.8099L38.419 62.5128C38.1173 62.8146 37.708 62.9842 37.2812 62.9843ZM25.9013 47.7194L37.2812 59.0993L58.7068 37.6721L56.4328 35.3964L38.419 53.4085C38.1172 53.7102 37.7079 53.8797 37.2812 53.8797C36.8544 53.8797 36.4452 53.7102 36.1434 53.4085L28.1769 45.4421L25.9013 47.7194Z" fill="#00A72F"/>
</svg>
