<svg width="70" height="70" viewBox="0 0 70 70" fill="none" xmlns="http://www.w3.org/2000/svg">
<g clip-path="url(#clip0)">
<path d="M55.1857 55.927L55.1857 55.927C54.6561 55.5221 53.8991 55.6237 53.4944 56.153L55.1857 55.927ZM55.1857 55.927L56.5123 56.9411L56.622 57.0249L56.7146 56.9226L60.3077 52.9552C60.3077 52.9552 60.3077 52.9552 60.3077 52.9552C60.7549 52.4614 61.5181 52.4236 62.0119 52.8708L62.0119 52.8709M55.1857 55.927L62.0119 52.8709M62.0119 52.8709C62.5058 53.3181 62.5435 54.081 62.0962 54.575C62.0962 54.575 62.0962 54.575 62.0962 54.575L57.6654 59.4673L62.0119 52.8709ZM53.7204 57.8443L56.0385 59.616C56.2566 59.7826 56.5141 59.8639 56.7706 59.8639C57.1008 59.8639 57.4283 59.729 57.6653 59.4673L53.7204 57.8443ZM53.7204 57.8443C53.191 57.4396 53.0898 56.6824 53.4944 56.153L53.7204 57.8443Z" fill="#00A72F" stroke="white" stroke-width="0.3"/>
<mask id="path-2-inside-1" fill="white">
<path d="M69.6794 48.5669C69.664 47.8752 69.1305 47.3063 68.4415 47.2461C65.2145 46.9641 61.2435 44.7964 58.3245 41.7241C58.0684 41.4547 57.7131 41.3021 57.3414 41.3019C57.3413 41.3019 57.3412 41.3019 57.341 41.3019C56.9696 41.3019 56.6144 41.4543 56.3583 41.7234C55.048 43.1006 53.5271 44.2953 51.9577 45.2206C49.2037 42.1462 45.8141 39.8811 41.8414 38.4553C41.8068 38.4413 41.7718 38.4289 41.736 38.4177C41.4265 38.3081 41.1135 38.2036 40.797 38.104C44.1568 34.7532 46.4167 30.3497 46.4167 26.3995V24.2683C48.0049 23.5768 49.1187 21.9916 49.1187 20.1504C49.1187 18.2379 47.9149 16.6021 46.2257 15.9584C45.5284 9.18942 40.7594 3.49921 34.2085 1.61667C34.0149 0.69466 33.1958 0 32.2172 0H27.3017C26.3578 0 25.5644 0.646775 25.3354 1.51995C22.1131 2.37929 19.1698 4.21353 16.963 6.76374C14.7232 9.3522 13.3303 12.5847 12.9766 15.9591C11.2865 16.6032 10.0824 18.2386 10.0824 20.1506C10.0824 21.9924 11.1978 23.578 12.7881 24.2691V26.3996C12.7881 30.3462 15.0485 34.7513 18.4081 38.1044C18.1008 38.201 17.7966 38.302 17.4959 38.4081C17.4367 38.4249 17.3792 38.4457 17.3232 38.4702C12.8766 40.0743 9.16428 42.7295 6.25704 46.3962C3.46104 49.9228 1.47338 54.2779 0.349386 59.3414C-0.0506435 61.1509 -0.351513 63.4249 0.882352 64.9613C2.08759 66.462 4.24415 66.6544 5.98846 66.6544H14.862C15.6111 66.6544 16.2184 66.0469 16.2184 65.2979C16.2184 64.5488 15.6111 63.9414 14.862 63.9414H5.98846C4.36569 63.9414 3.35944 63.7129 2.99767 63.2624C2.61446 62.7852 2.61473 61.663 2.99807 59.928C4.40787 53.578 7.85499 45.8074 16.1604 41.884C15.905 46.4666 18.388 49.462 19.9663 51.3632C20.2079 51.6543 20.56 51.8312 20.9378 51.8514C21.3153 51.8722 21.6846 51.7331 21.9557 51.4694L29.6006 44.0347L37.2492 51.4696C37.503 51.7163 37.8424 51.8534 38.1947 51.8534C38.219 51.8534 38.2433 51.8527 38.2678 51.8514C38.6456 51.831 38.9979 51.6537 39.2393 51.3622C40.8154 49.4595 43.2948 46.4623 43.0417 41.8893C45.4513 43.0323 47.5801 44.5609 49.4109 46.4651C48.3177 46.8882 47.2428 47.1586 46.2405 47.2462C45.5519 47.3063 45.0187 47.8748 45.0025 48.5659C44.889 53.4158 45.6973 56.8905 47.8843 60.9574C47.9027 60.9918 48.6417 62.3166 49.7933 63.9416H27.1427C26.3935 63.9416 25.7862 64.5491 25.7862 65.2981C25.7862 66.0472 26.3935 66.6546 27.1427 66.6546H51.9476C53.583 68.462 55.5118 70.0003 57.3409 70.0003C61.7538 70.0003 66.749 61.0478 66.797 60.9583C68.9804 56.8907 69.7885 53.4166 69.6794 48.5669ZM43.4568 15.6656H35.9882C34.5772 11.9796 34.3102 8.9401 34.2624 4.47819C39.1551 6.20866 42.712 10.5258 43.4568 15.6656ZM27.9792 2.71298H31.5395C31.548 7.96369 31.6811 11.5199 33.1026 15.6656H26.4189C27.8379 11.5197 27.9708 7.96315 27.9792 2.71298ZM25.2577 4.37116C25.2129 8.8918 24.9536 11.95 23.5339 15.6657H15.7473C16.5211 10.4591 20.2639 6.02486 25.2577 4.37116ZM14.5711 18.3786H23.6458C23.7257 18.4434 23.803 18.4517 23.8678 18.3786H44.6337C45.6108 18.3786 46.4057 19.1733 46.4057 20.1506C46.4057 21.1298 45.6109 21.9265 44.6337 21.9265H14.5711C13.592 21.9265 12.7953 21.1298 12.7953 20.1506C12.7953 19.1735 13.5919 18.3786 14.5711 18.3786ZM15.5011 26.3996V24.6393H43.7036V26.3996C43.7036 31.5714 38.6932 37.9677 32.9813 40.088C30.482 41.0168 28.7075 41.016 26.2024 40.085C20.5017 37.956 15.5011 31.5608 15.5011 26.3996ZM21.1308 48.4871C19.7269 46.6542 18.375 44.2478 19.0248 40.7547C19.6231 40.5615 20.2414 40.3853 20.8825 40.2295C22.2504 41.233 23.7257 42.0561 25.2551 42.6274C25.7474 42.8102 26.2211 42.9609 26.6845 43.0863L21.1308 48.4871ZM38.0726 48.4863L32.5156 43.0846C32.973 42.9605 33.4405 42.8117 33.9258 42.6313C35.4629 42.0607 36.9454 41.236 38.3196 40.2292C38.9528 40.3833 39.5721 40.5579 40.1763 40.7535C40.8275 44.2417 39.4762 46.6506 38.0726 48.4863ZM64.4062 59.6759C62.802 62.6698 59.0452 67.287 57.3409 67.287C55.6366 67.287 51.8798 62.6698 50.2747 59.674C48.4821 56.3408 47.7464 53.5612 47.7066 49.7766C49.1699 49.4981 50.6934 48.952 52.1915 48.1894C52.2442 48.1664 52.2954 48.1395 52.3458 48.1093C54.0951 47.2001 55.8059 45.9967 57.3404 44.5666C60.2294 47.2619 63.7467 49.1628 66.9742 49.7767C66.9314 53.5619 66.196 56.342 64.4062 59.6759Z"/>
</mask>
<path d="M69.6794 48.5669C69.664 47.8752 69.1305 47.3063 68.4415 47.2461C65.2145 46.9641 61.2435 44.7964 58.3245 41.7241C58.0684 41.4547 57.7131 41.3021 57.3414 41.3019C57.3413 41.3019 57.3412 41.3019 57.341 41.3019C56.9696 41.3019 56.6144 41.4543 56.3583 41.7234C55.048 43.1006 53.5271 44.2953 51.9577 45.2206C49.2037 42.1462 45.8141 39.8811 41.8414 38.4553C41.8068 38.4413 41.7718 38.4289 41.736 38.4177C41.4265 38.3081 41.1135 38.2036 40.797 38.104C44.1568 34.7532 46.4167 30.3497 46.4167 26.3995V24.2683C48.0049 23.5768 49.1187 21.9916 49.1187 20.1504C49.1187 18.2379 47.9149 16.6021 46.2257 15.9584C45.5284 9.18942 40.7594 3.49921 34.2085 1.61667C34.0149 0.69466 33.1958 0 32.2172 0H27.3017C26.3578 0 25.5644 0.646775 25.3354 1.51995C22.1131 2.37929 19.1698 4.21353 16.963 6.76374C14.7232 9.3522 13.3303 12.5847 12.9766 15.9591C11.2865 16.6032 10.0824 18.2386 10.0824 20.1506C10.0824 21.9924 11.1978 23.578 12.7881 24.2691V26.3996C12.7881 30.3462 15.0485 34.7513 18.4081 38.1044C18.1008 38.201 17.7966 38.302 17.4959 38.4081C17.4367 38.4249 17.3792 38.4457 17.3232 38.4702C12.8766 40.0743 9.16428 42.7295 6.25704 46.3962C3.46104 49.9228 1.47338 54.2779 0.349386 59.3414C-0.0506435 61.1509 -0.351513 63.4249 0.882352 64.9613C2.08759 66.462 4.24415 66.6544 5.98846 66.6544H14.862C15.6111 66.6544 16.2184 66.0469 16.2184 65.2979C16.2184 64.5488 15.6111 63.9414 14.862 63.9414H5.98846C4.36569 63.9414 3.35944 63.7129 2.99767 63.2624C2.61446 62.7852 2.61473 61.663 2.99807 59.928C4.40787 53.578 7.85499 45.8074 16.1604 41.884C15.905 46.4666 18.388 49.462 19.9663 51.3632C20.2079 51.6543 20.56 51.8312 20.9378 51.8514C21.3153 51.8722 21.6846 51.7331 21.9557 51.4694L29.6006 44.0347L37.2492 51.4696C37.503 51.7163 37.8424 51.8534 38.1947 51.8534C38.219 51.8534 38.2433 51.8527 38.2678 51.8514C38.6456 51.831 38.9979 51.6537 39.2393 51.3622C40.8154 49.4595 43.2948 46.4623 43.0417 41.8893C45.4513 43.0323 47.5801 44.5609 49.4109 46.4651C48.3177 46.8882 47.2428 47.1586 46.2405 47.2462C45.5519 47.3063 45.0187 47.8748 45.0025 48.5659C44.889 53.4158 45.6973 56.8905 47.8843 60.9574C47.9027 60.9918 48.6417 62.3166 49.7933 63.9416H27.1427C26.3935 63.9416 25.7862 64.5491 25.7862 65.2981C25.7862 66.0472 26.3935 66.6546 27.1427 66.6546H51.9476C53.583 68.462 55.5118 70.0003 57.3409 70.0003C61.7538 70.0003 66.749 61.0478 66.797 60.9583C68.9804 56.8907 69.7885 53.4166 69.6794 48.5669ZM43.4568 15.6656H35.9882C34.5772 11.9796 34.3102 8.9401 34.2624 4.47819C39.1551 6.20866 42.712 10.5258 43.4568 15.6656ZM27.9792 2.71298H31.5395C31.548 7.96369 31.6811 11.5199 33.1026 15.6656H26.4189C27.8379 11.5197 27.9708 7.96315 27.9792 2.71298ZM25.2577 4.37116C25.2129 8.8918 24.9536 11.95 23.5339 15.6657H15.7473C16.5211 10.4591 20.2639 6.02486 25.2577 4.37116ZM14.5711 18.3786H23.6458C23.7257 18.4434 23.803 18.4517 23.8678 18.3786H44.6337C45.6108 18.3786 46.4057 19.1733 46.4057 20.1506C46.4057 21.1298 45.6109 21.9265 44.6337 21.9265H14.5711C13.592 21.9265 12.7953 21.1298 12.7953 20.1506C12.7953 19.1735 13.5919 18.3786 14.5711 18.3786ZM15.5011 26.3996V24.6393H43.7036V26.3996C43.7036 31.5714 38.6932 37.9677 32.9813 40.088C30.482 41.0168 28.7075 41.016 26.2024 40.085C20.5017 37.956 15.5011 31.5608 15.5011 26.3996ZM21.1308 48.4871C19.7269 46.6542 18.375 44.2478 19.0248 40.7547C19.6231 40.5615 20.2414 40.3853 20.8825 40.2295C22.2504 41.233 23.7257 42.0561 25.2551 42.6274C25.7474 42.8102 26.2211 42.9609 26.6845 43.0863L21.1308 48.4871ZM38.0726 48.4863L32.5156 43.0846C32.973 42.9605 33.4405 42.8117 33.9258 42.6313C35.4629 42.0607 36.9454 41.236 38.3196 40.2292C38.9528 40.3833 39.5721 40.5579 40.1763 40.7535C40.8275 44.2417 39.4762 46.6506 38.0726 48.4863ZM64.4062 59.6759C62.802 62.6698 59.0452 67.287 57.3409 67.287C55.6366 67.287 51.8798 62.6698 50.2747 59.674C48.4821 56.3408 47.7464 53.5612 47.7066 49.7766C49.1699 49.4981 50.6934 48.952 52.1915 48.1894C52.2442 48.1664 52.2954 48.1395 52.3458 48.1093C54.0951 47.2001 55.8059 45.9967 57.3404 44.5666C60.2294 47.2619 63.7467 49.1628 66.9742 49.7767C66.9314 53.5619 66.196 56.342 64.4062 59.6759Z" fill="black" stroke="white" stroke-width="0.5" mask="url(#path-2-inside-1)"/>
<rect x="15" y="64.1" width="12" height="2.35" fill="black"/>
</g>
<defs>
<clipPath id="clip0">
<rect width="70" height="70" fill="white"/>
</clipPath>
</defs>
</svg>
